<svg width="16" height="16" viewBox="0 0 16 16" fill="none" xmlns="http://www.w3.org/2000/svg">
<path d="M9.28206 1.65469L10.5803 4.25123C10.7574 4.6053 11.2295 4.95938 11.6229 5.01839L13.9735 5.41181C15.4783 5.66753 15.8324 6.74942 14.7505 7.83131L12.9211 9.67052C12.6162 9.97542 12.4392 10.5754 12.5376 11.0081L13.0588 13.2801C13.4719 15.0701 12.5179 15.7685 10.9344 14.8341L8.73128 13.526C8.32803 13.2899 7.67889 13.2899 7.27564 13.526L5.06268 14.8243C3.47919 15.7586 2.52516 15.0603 2.93824 13.2703L3.45952 10.9983C3.55787 10.5754 3.38083 9.97542 3.07594 9.66069L1.25639 7.84114C0.174501 6.75925 0.528575 5.66752 2.03339 5.42164L4.38404 5.02823C4.77746 4.95938 5.24955 4.61514 5.42659 4.26107L6.72486 1.66453C7.42317 0.248233 8.58375 0.248233 9.28206 1.65469Z" fill="#ACACAC"/>
</svg>
